<svg id="ccae11fb-07a3-49f9-b4f8-3ac56947cd5f" data-name="Layer 1" xmlns="http://www.w3.org/2000/svg" xmlns:xlink="http://www.w3.org/1999/xlink" viewBox="0 0 40 40"><defs><clipPath id="65865fc9-2e72-41bd-bb0f-60ce68d4c6e1"><circle cx="-24.96" cy="17.04" r="12" style="fill:none"/></clipPath><clipPath id="3f42de08-26c9-4556-a4e6-57338217c7a4"><circle cx="17.04" cy="17.04" r="12" style="fill:none"/></clipPath></defs><title>pluginIcon</title><g style="clip-path:url(#65865fc9-2e72-41bd-bb0f-60ce68d4c6e1)"><path d="M-50.19,2.38a1.22,1.22,0,0,1-1.35-1,1.21,1.21,0,0,1,1.34-1L3.93,0A1.27,1.27,0,0,1,5.29,1,1.21,1.21,0,0,1,4,2l-54.13.39h0Z" style="fill:#1c1c1c"/><path d="M-50.19,14.27a1.22,1.22,0,0,1-1.35-1,1.21,1.21,0,0,1,1.34-1L3.93,11.9a1.29,1.29,0,0,1,1.37,1,1.21,1.21,0,0,1-1.34,1l-54.13.39h0Z" style="fill:#1c1c1c"/><path d="M-16.22,6.1a1.22,1.22,0,0,1-1.35-1,1.21,1.21,0,0,1,1.34-1L3.93,4A1.28,1.28,0,0,1,5.29,5,1.21,1.21,0,0,1,4,6L-16.2,6.1h0Z" style="fill:#1c1c1c"/><path d="M-23,10.11a1.22,1.22,0,0,1-1.35-1,1.21,1.21,0,0,1,1.34-1l27-.19a1.28,1.28,0,0,1,1.37,1A1.21,1.21,0,0,1,4,9.92l-27,.19h0Z" style="fill:#1ad6b6"/><path d="M-50.19,18.24a1.22,1.22,0,0,1-1.35-1,1.21,1.21,0,0,1,1.34-1l54.13-.39a1.3,1.3,0,0,1,1.37,1,1.21,1.21,0,0,1-1.34,1l-54.13.39h0Z" style="fill:#1c1c1c"/><path d="M-50.19,30.13a1.22,1.22,0,0,1-1.35-1,1.21,1.21,0,0,1,1.34-1l54.13-.39a1.2,1.2,0,0,1,1.37,1,1.21,1.21,0,0,1-1.34,1l-54.13.39h0Z" style="fill:#1c1c1c"/><path d="M-16.22,22a1.22,1.22,0,0,1-1.35-1,1.21,1.21,0,0,1,1.34-1l20.15-.15a1.31,1.31,0,0,1,1.37,1,1.21,1.21,0,0,1-1.34,1L-16.2,22h0Z" style="fill:#1c1c1c"/><path d="M-23,26a1.22,1.22,0,0,1-1.35-1A1.21,1.21,0,0,1-23,24l27-.19a1.31,1.31,0,0,1,1.37,1,1.21,1.21,0,0,1-1.34,1L-23,26h0Z" style="fill:#1c1c1c"/><path d="M-50.19,34.1a1.22,1.22,0,0,1-1.35-1,1.21,1.21,0,0,1,1.34-1l54.13-.39a1.21,1.21,0,0,1,1.37,1,1.21,1.21,0,0,1-1.34,1l-54.13.39h0Z" style="fill:#1c1c1c"/><path d="M-16.22,37.82a1.22,1.22,0,0,1-1.35-1,1.21,1.21,0,0,1,1.34-1l20.15-.15a1.22,1.22,0,0,1,1.37,1,1.21,1.21,0,0,1-1.34,1l-20.15.15h0Z" style="fill:#1c1c1c"/><path d="M-23,41.83a1.22,1.22,0,0,1-1.35-1,1.21,1.21,0,0,1,1.34-1l27-.19a1.22,1.22,0,0,1,1.37,1,1.21,1.21,0,0,1-1.34,1l-27,.19h0Z" style="fill:#1c1c1c"/></g><path d="M17,4A13,13,0,1,1,4,17,13,13,0,0,1,17,4m0-2a15,15,0,1,0,15,15A15.06,15.06,0,0,0,17,2h0Z" style="fill:#aeb1b3"/><path d="M37.28,38a0.72,0.72,0,0,1-.51-0.21L26.88,27.9a0.72,0.72,0,0,1,1-1l9.89,9.89A0.72,0.72,0,0,1,37.28,38Z" style="fill:#aeb1b3"/><g style="clip-path:url(#3f42de08-26c9-4556-a4e6-57338217c7a4)"><path d="M-8.19,2.38a1.22,1.22,0,0,1-1.35-1A1.21,1.21,0,0,1-8.2.39L45.93,0a1.27,1.27,0,0,1,1.37,1A1.21,1.21,0,0,1,46,2l-54.13.39h0Z" style="fill:#aeb1b3"/><path d="M-8.19,14.27a1.22,1.22,0,0,1-1.35-1,1.21,1.21,0,0,1,1.34-1l54.13-.39a1.29,1.29,0,0,1,1.37,1,1.21,1.21,0,0,1-1.34,1l-54.13.39h0Z" style="fill:#aeb1b3"/><path d="M25.78,6.1a1.22,1.22,0,0,1-1.35-1,1.21,1.21,0,0,1,1.34-1L45.93,4a1.28,1.28,0,0,1,1.37,1A1.21,1.21,0,0,1,46,6L25.8,6.1h0Z" style="fill:#aeb1b3"/><path d="M-8.19,6.34a1.22,1.22,0,0,1-1.35-1,1.21,1.21,0,0,1,1.34-1l27-.19a1.19,1.19,0,0,1,1.37,1,1.21,1.21,0,0,1-1.34,1l-27,.19h0Z" style="fill:#aeb1b3"/><path d="M-8.19,10.31a1.22,1.22,0,0,1-1.35-1,1.21,1.21,0,0,1,1.34-1L12,8.18h0a1.22,1.22,0,0,1,1.35,1,1.21,1.21,0,0,1-1.34,1l-20.16.14h0Z" style="fill:#aeb1b3"/><path d="M19,10.11a1.22,1.22,0,0,1-1.35-1,1.21,1.21,0,0,1,1.34-1l27-.19a1.28,1.28,0,0,1,1.37,1,1.21,1.21,0,0,1-1.34,1l-27,.19h0Z" style="fill:#1ad6b6"/><path d="M-8.19,18.24a1.22,1.22,0,0,1-1.35-1,1.21,1.21,0,0,1,1.34-1l54.13-.39a1.3,1.3,0,0,1,1.37,1,1.21,1.21,0,0,1-1.34,1l-54.13.39h0Z" style="fill:#aeb1b3"/><path d="M-8.19,30.13a1.22,1.22,0,0,1-1.35-1,1.21,1.21,0,0,1,1.34-1l54.13-.39a1.2,1.2,0,0,1,1.37,1,1.21,1.21,0,0,1-1.34,1l-54.13.39h0Z" style="fill:#aeb1b3"/><path d="M25.78,22a1.22,1.22,0,0,1-1.35-1,1.21,1.21,0,0,1,1.34-1l20.15-.15a1.31,1.31,0,0,1,1.37,1,1.21,1.21,0,0,1-1.34,1L25.8,22h0Z" style="fill:#aeb1b3"/><path d="M-8.19,22.2a1.22,1.22,0,0,1-1.35-1,1.21,1.21,0,0,1,1.34-1l27-.19a1.21,1.21,0,0,1,1.37,1,1.21,1.21,0,0,1-1.34,1l-27,.19h0Z" style="fill:#1ad6b6"/><path d="M-8.19,26.17a1.22,1.22,0,0,1-1.35-1,1.21,1.21,0,0,1,1.34-1L12,24a1.15,1.15,0,0,1,1.37,1A1.21,1.21,0,0,1,12,26l-20.16.14h0Z" style="fill:#aeb1b3"/><path d="M19,26a1.22,1.22,0,0,1-1.35-1A1.21,1.21,0,0,1,19,24l27-.19a1.31,1.31,0,0,1,1.37,1,1.21,1.21,0,0,1-1.34,1L19,26h0Z" style="fill:#aeb1b3"/><path d="M-8.19,34.1a1.22,1.22,0,0,1-1.35-1,1.21,1.21,0,0,1,1.34-1l54.13-.39a1.21,1.21,0,0,1,1.37,1,1.21,1.21,0,0,1-1.34,1l-54.13.39h0Z" style="fill:#1c1c1c"/><path d="M25.78,37.82a1.22,1.22,0,0,1-1.35-1,1.21,1.21,0,0,1,1.34-1l20.15-.15a1.22,1.22,0,0,1,1.37,1,1.21,1.21,0,0,1-1.34,1l-20.15.15h0Z" style="fill:#1c1c1c"/><path d="M-8.19,38.06a1.22,1.22,0,0,1-1.35-1,1.21,1.21,0,0,1,1.34-1l27-.19a1.23,1.23,0,0,1,1.37,1,1.21,1.21,0,0,1-1.34,1l-27,.19h0Z" style="fill:#1c1c1c"/><path d="M-8.19,42a1.22,1.22,0,0,1-1.35-1A1.21,1.21,0,0,1-8.2,40L12,39.9a1.16,1.16,0,0,1,1.37,1,1.21,1.21,0,0,1-1.34,1L-8.18,42h0Z" style="fill:#1c1c1c"/><path d="M19,41.83a1.22,1.22,0,0,1-1.35-1,1.21,1.21,0,0,1,1.34-1l27-.19a1.22,1.22,0,0,1,1.37,1,1.21,1.21,0,0,1-1.34,1l-27,.19h0Z" style="fill:#1c1c1c"/></g></svg>